General

Format                         : MPEG-4
Format profile                 : Base Media
Codec ID                       : isom
File size                      : 130 MiB
Duration                       : 5mn 32s
Overall bit rate mode          : Variable
Overall bit rate               : 3 275 Kbps
Encoded date                   : UTC 2012-11-15 02:24:44
Tagged date                    : UTC 2012-11-15 02:24:44

Video
ID                             : 1
Format                         : AVC
Format/Info                    : Advanced Video Codec
Format profile                 : High@L3.0
Format settings, CABAC         : Yes
Format settings, ReFrames      : 2 frames
Codec ID                       : avc1
Codec ID/Info                  : Advanced Video Coding
Duration                       : 5mn 32s
Bit rate                       : 3 079 Kbps
Maximum bit rate               : 7 148 Kbps
Width                          : 720 pixels
Height                         : 480 pixels
Display aspect ratio           : 16:9
Original display aspect ratio  : 16:9
Frame rate mode                : Constant
Frame rate                     : 23.976 fps
Standard                       : NTSC
Color space                    : YUV
Chroma subsampling             : 4:2:0
Bit depth                      : 8 bits
Scan type                      : Progressive
Bits/(Pixel*Frame)             : 0.372
Stream size                    : 122 MiB (94%)


Audio
ID                             : 2
Format                         : AAC
Format/Info                    : Advanced Audio Codec
Format profile                 : LC
Codec ID                       : 40
Duration                       : 5mn 32s
Bit rate mode                  : Variable
Bit rate                       : 192 Kbps
Maximum bit rate               : 210 Kbps
Channel(s)                     : 2 channels
Channel positions              : Front: L R
Sampling rate                  : 44.1 KHz
Compression mode               : Lossy
Stream size                    : 7.62 MiB (6%)